{
	"asset":{
		"generator":"Khronos glTF Blender I/O v4.4.56",
		"version":"2.0"
	},
	"extensionsUsed":[
		"KHR_materials_transmission",
		"KHR_materials_specular"
	],
	"scene":0,
	"scenes":[
		{
			"name":"Scene",
			"nodes":[
				0,
				1,
				2,
				3,
				4,
				5
			]
		}
	],
	"nodes":[
		{
			"mesh":0,
			"name":"Credit_Card",
			"rotation":[
				0.7071068286895752,
				0,
				0,
				0.7071068286895752
			]
		},
		{
			"mesh":1,
			"name":"Credit_Card.001",
			"rotation":[
				0.7071068286895752,
				0,
				0,
				0.7071068286895752
			]
		},
		{
			"mesh":2,
			"name":"Credit_Card.002",
			"rotation":[
				0.7071068286895752,
				0,
				0,
				0.7071068286895752
			]
		},
		{
			"mesh":3,
			"name":"Credit_Card.003",
			"rotation":[
				0.7071068286895752,
				0,
				0,
				0.7071068286895752
			]
		},
		{
			"mesh":4,
			"name":"Credit_Card.004",
			"rotation":[
				0.7071068286895752,
				0,
				0,
				0.7071068286895752
			]
		},
		{
			"mesh":5,
			"name":"Credit_Card.031",
			"rotation":[
				0.7071068286895752,
				0,
				0,
				0.7071068286895752
			]
		}
	],
	"materials":[
		{
			"doubleSided":true,
			"extensions":{
				"KHR_materials_transmission":{
					"transmissionFactor":1
				},
				"KHR_materials_specular":{
					"specularFactor":0.14399999380111694
				}
			},
			"name":"02___Default",
			"pbrMetallicRoughness":{
				"baseColorFactor":[
					0.992156982421875,
					0.992156982421875,
					0.992156982421875,
					1
				],
				"metallicFactor":0,
				"roughnessFactor":0.8658359050750732
			}
		},
		{
			"doubleSided":true,
			"extensions":{
				"KHR_materials_transmission":{
					"transmissionFactor":1
				},
				"KHR_materials_specular":{
					"specularFactor":0
				}
			},
			"name":"01_Image",
			"pbrMetallicRoughness":{
				"baseColorTexture":{
					"index":0
				},
				"metallicFactor":0,
				"roughnessFactor":0.8999999761581421
			}
		}
	],
	"meshes":[
		{
			"name":"Credit_Card",
			"primitives":[
				{
					"attributes":{
						"POSITION":0,
						"NORMAL":1,
						"TEXCOORD_0":2
					},
					"indices":3,
					"material":0
				}
			]
		},
		{
			"name":"Credit_Card.001",
			"primitives":[
				{
					"attributes":{
						"POSITION":4,
						"NORMAL":5,
						"TEXCOORD_0":6
					},
					"indices":7,
					"material":0
				}
			]
		},
		{
			"name":"Credit_Card.002",
			"primitives":[
				{
					"attributes":{
						"POSITION":8,
						"NORMAL":9,
						"TEXCOORD_0":10
					},
					"indices":11,
					"material":0
				}
			]
		},
		{
			"name":"Credit_Card.003",
			"primitives":[
				{
					"attributes":{
						"POSITION":12,
						"NORMAL":13,
						"TEXCOORD_0":14
					},
					"indices":15,
					"material":0
				}
			]
		},
		{
			"name":"Credit_Card.004",
			"primitives":[
				{
					"attributes":{
						"POSITION":16,
						"NORMAL":17,
						"TEXCOORD_0":18
					},
					"indices":19,
					"material":0
				}
			]
		},
		{
			"name":"Credit_Card.031",
			"primitives":[
				{
					"attributes":{
						"POSITION":20,
						"NORMAL":21,
						"TEXCOORD_0":22
					},
					"indices":23,
					"material":1
				}
			]
		}
	],
	"textures":[
		{
			"sampler":0,
			"source":0
		}
	],
	"images":[
		{
			"mimeType":"image/png",
			"name":"Texture01_image@0.5x@0.5x@0.5x",
			"uri":"Textures/Texture01_image0_5x0_5x0_5x.png"
		}
	],
	"accessors":[
		{
			"bufferView":0,
			"componentType":5126,
			"count":438,
			"max":[
				9.943163871765137,
				16.09453582763672,
				-0.736998975276947
			],
			"min":[
				8.35516357421875,
				13.586535453796387,
				-0.8369989991188049
			],
			"type":"VEC3"
		},
		{
			"bufferView":1,
			"componentType":5126,
			"count":438,
			"type":"VEC3"
		},
		{
			"bufferView":2,
			"componentType":5126,
			"count":438,
			"type":"VEC2"
		},
		{
			"bufferView":3,
			"componentType":5123,
			"count":1272,
			"type":"SCALAR"
		},
		{
			"bufferView":4,
			"componentType":5126,
			"count":442,
			"max":[
				12.287163734436035,
				16.09453582763672,
				-0.736998975276947
			],
			"min":[
				10.675163269042969,
				13.586535453796387,
				-0.8369989991188049
			],
			"type":"VEC3"
		},
		{
			"bufferView":5,
			"componentType":5126,
			"count":442,
			"type":"VEC3"
		},
		{
			"bufferView":6,
			"componentType":5126,
			"count":442,
			"type":"VEC2"
		},
		{
			"bufferView":7,
			"componentType":5123,
			"count":1284,
			"type":"SCALAR"
		},
		{
			"bufferView":8,
			"componentType":5126,
			"count":232,
			"max":[
				14.655163764953613,
				16.09453582763672,
				-0.736998975276947
			],
			"min":[
				13.063163757324219,
				13.586535453796387,
				-0.8369989991188049
			],
			"type":"VEC3"
		},
		{
			"bufferView":9,
			"componentType":5126,
			"count":232,
			"type":"VEC3"
		},
		{
			"bufferView":10,
			"componentType":5126,
			"count":232,
			"type":"VEC2"
		},
		{
			"bufferView":11,
			"componentType":5123,
			"count":684,
			"type":"SCALAR"
		},
		{
			"bufferView":12,
			"componentType":5126,
			"count":442,
			"max":[
				16.95116424560547,
				16.09453582763672,
				-0.736998975276947
			],
			"min":[
				15.339164733886719,
				13.586535453796387,
				-0.8369989991188049
			],
			"type":"VEC3"
		},
		{
			"bufferView":13,
			"componentType":5126,
			"count":442,
			"type":"VEC3"
		},
		{
			"bufferView":14,
			"componentType":5126,
			"count":442,
			"type":"VEC2"
		},
		{
			"bufferView":15,
			"componentType":5123,
			"count":1284,
			"type":"SCALAR"
		},
		{
			"bufferView":16,
			"componentType":5126,
			"count":438,
			"max":[
				19.271163940429688,
				16.09453582763672,
				-0.736998975276947
			],
			"min":[
				17.683162689208984,
				13.586535453796387,
				-0.8369989991188049
			],
			"type":"VEC3"
		},
		{
			"bufferView":17,
			"componentType":5126,
			"count":438,
			"type":"VEC3"
		},
		{
			"bufferView":18,
			"componentType":5126,
			"count":438,
			"type":"VEC2"
		},
		{
			"bufferView":19,
			"componentType":5123,
			"count":1272,
			"type":"SCALAR"
		},
		{
			"bufferView":20,
			"componentType":5126,
			"count":312,
			"max":[
				42.79999923706055,
				26.989999771118164,
				0
			],
			"min":[
				-42.79999923706055,
				-26.989999771118164,
				-0.7599999904632568
			],
			"type":"VEC3"
		},
		{
			"bufferView":21,
			"componentType":5126,
			"count":312,
			"type":"VEC3"
		},
		{
			"bufferView":22,
			"componentType":5126,
			"count":312,
			"type":"VEC2"
		},
		{
			"bufferView":23,
			"componentType":5123,
			"count":1260,
			"type":"SCALAR"
		}
	],
	"bufferViews":[
		{
			"buffer":0,
			"byteLength":5256,
			"byteOffset":0,
			"target":34962
		},
		{
			"buffer":0,
			"byteLength":5256,
			"byteOffset":5256,
			"target":34962
		},
		{
			"buffer":0,
			"byteLength":3504,
			"byteOffset":10512,
			"target":34962
		},
		{
			"buffer":0,
			"byteLength":2544,
			"byteOffset":14016,
			"target":34963
		},
		{
			"buffer":0,
			"byteLength":5304,
			"byteOffset":16560,
			"target":34962
		},
		{
			"buffer":0,
			"byteLength":5304,
			"byteOffset":21864,
			"target":34962
		},
		{
			"buffer":0,
			"byteLength":3536,
			"byteOffset":27168,
			"target":34962
		},
		{
			"buffer":0,
			"byteLength":2568,
			"byteOffset":30704,
			"target":34963
		},
		{
			"buffer":0,
			"byteLength":2784,
			"byteOffset":33272,
			"target":34962
		},
		{
			"buffer":0,
			"byteLength":2784,
			"byteOffset":36056,
			"target":34962
		},
		{
			"buffer":0,
			"byteLength":1856,
			"byteOffset":38840,
			"target":34962
		},
		{
			"buffer":0,
			"byteLength":1368,
			"byteOffset":40696,
			"target":34963
		},
		{
			"buffer":0,
			"byteLength":5304,
			"byteOffset":42064,
			"target":34962
		},
		{
			"buffer":0,
			"byteLength":5304,
			"byteOffset":47368,
			"target":34962
		},
		{
			"buffer":0,
			"byteLength":3536,
			"byteOffset":52672,
			"target":34962
		},
		{
			"buffer":0,
			"byteLength":2568,
			"byteOffset":56208,
			"target":34963
		},
		{
			"buffer":0,
			"byteLength":5256,
			"byteOffset":58776,
			"target":34962
		},
		{
			"buffer":0,
			"byteLength":5256,
			"byteOffset":64032,
			"target":34962
		},
		{
			"buffer":0,
			"byteLength":3504,
			"byteOffset":69288,
			"target":34962
		},
		{
			"buffer":0,
			"byteLength":2544,
			"byteOffset":72792,
			"target":34963
		},
		{
			"buffer":0,
			"byteLength":3744,
			"byteOffset":75336,
			"target":34962
		},
		{
			"buffer":0,
			"byteLength":3744,
			"byteOffset":79080,
			"target":34962
		},
		{
			"buffer":0,
			"byteLength":2496,
			"byteOffset":82824,
			"target":34962
		},
		{
			"buffer":0,
			"byteLength":2520,
			"byteOffset":85320,
			"target":34963
		}
	],
	"samplers":[
		{
			"magFilter":9729,
			"minFilter":9987
		}
	],
	"buffers":[
		{
			"byteLength":87840,
			"uri":"credit_card.bin"
		}
	]
}
