{
  "asset": {
    "version": "2.0",
    "generator": "THREE.GLTFExporter"
  },
  "scenes": [
    {
      "nodes": [
        0
      ]
    }
  ],
  "scene": 0,
  "nodes": [
    {
      "children": [
        11
      ],
      "matrix": [
        0.01,
        0,
        0,
        0,
        0,
        0.01,
        0,
        0,
        0,
        0,
        0.01,
        0,
        0,
        0,
        0,
        1
      ]
    },
    {
      "matrix": [
        1,
        0,
        0,
        0,
        0,
        1,
        0,
        0,
        0,
        0,
        1,
        0,
        0,
        410,
        800,
        1
      ],
      "name": "Camera",
      "camera": 0
    },
    {
      "matrix": [
        1,
        0,
        0,
        0,
        0,
        1,
        0,
        0,
        0,
        0,
        1,
        0,
        -58,
        1017.24,
        626.57,
        1
      ],
      "name": "Point Light",
      "extensions": {
        "KHR_lights_punctual": {
          "light": 0
        }
      }
    },
    {
      "matrix": [
        1,
        0,
        0,
        0,
        0,
        1,
        0,
        0,
        0,
        0,
        1,
        0,
        -120.02898947814333,
        61.39141153496361,
        1.877499999832362,
        1
      ],
      "name": "Merged Geometry",
      "mesh": 0
    },
    {
      "matrix": [
        1,
        0,
        0,
        0,
        0,
        1,
        0,
        0,
        0,
        0,
        1,
        0,
        133.55478411111676,
        63.91526861326899,
        2.362500000167638,
        1
      ],
      "name": "Merged Geometry",
      "mesh": 1
    },
    {
      "matrix": [
        1,
        0,
        0,
        0,
        0,
        1,
        0,
        0,
        0,
        0,
        1,
        0,
        -45.524891480000164,
        -77.24966965312052,
        2.137499999832362,
        1
      ],
      "name": "Text 2",
      "mesh": 2
    },
    {
      "matrix": [
        1,
        0,
        0,
        0,
        0,
        1,
        0,
        0,
        0,
        0,
        1,
        0,
        112.66194252908366,
        -71.53,
        1.88,
        1
      ],
      "name": "Merged Geometry",
      "mesh": 3
    },
    {
      "matrix": [
        1,
        0,
        0,
        0,
        0,
        1,
        0,
        0,
        0,
        0,
        1,
        0,
        0,
        0,
        -2.862500000167638,
        1
      ],
      "name": "Rectangle",
      "mesh": 4
    },
    {
      "matrix": [
        0.9855340033068938,
        0,
        0.16947781071835755,
        0,
        0,
        1,
        0,
        0,
        -0.16947781071835755,
        0,
        0.9855340033068938,
        0,
        1.3990311010020076,
        417.2698094349971,
        76.30028478291771,
        1
      ],
      "name": "Card Silver",
      "children": [
        3,
        4,
        5,
        6,
        7
      ]
    },
    {
      "matrix": [
        1,
        0,
        0,
        0,
        0,
        1,
        -5.684341886080802e-17,
        0,
        0,
        5.684341886080802e-17,
        1,
        0,
        0,
        410.00000000000006,
        800,
        1
      ],
      "camera": 1
    },
    {
      "matrix": [
        1,
        0,
        0,
        0,
        0,
        1,
        0,
        0,
        0,
        0,
        1,
        0,
        0,
        1,
        0,
        1
      ],
      "name": "Default Ambient Light"
    },
    {
      "name": "Scene 1",
      "children": [
        1,
        2,
        8,
        9,
        10
      ]
    }
  ],
  "cameras": [
    {
      "type": "orthographic",
      "orthographic": {
        "xmag": 3.6923076923076925,
        "ymag": 2.0282051282051285,
        "zfar": 100000,
        "znear": 0
      },
      "name": "Camera"
    },
    {
      "type": "orthographic",
      "orthographic": {
        "xmag": 3.6923076923076925,
        "ymag": 2.0282051282051285,
        "zfar": 100000,
        "znear": 0
      }
    }
  ],
  "extensions": {
    "KHR_lights_punctual": {
      "lights": [
        {
          "name": "Point Light",
          "color": [
            1,
            1,
            1
          ],
          "intensity": 0.8,
          "type": "point",
          "range": 20000
        }
      ]
    }
  },
  "bufferViews": [
    {
      "buffer": 0,
      "byteOffset": 0,
      "byteLength": 2688,
      "target": 34962,
      "byteStride": 12
    },
    {
      "buffer": 0,
      "byteOffset": 2688,
      "byteLength": 2688,
      "target": 34962,
      "byteStride": 12
    },
    {
      "buffer": 0,
      "byteOffset": 5376,
      "byteLength": 2544,
      "target": 34963
    },
    {
      "buffer": 0,
      "byteOffset": 7920,
      "byteLength": 6048,
      "target": 34962,
      "byteStride": 12
    },
    {
      "buffer": 0,
      "byteOffset": 13968,
      "byteLength": 6048,
      "target": 34962,
      "byteStride": 12
    },
    {
      "buffer": 0,
      "byteOffset": 20016,
      "byteLength": 5952,
      "target": 34963
    },
    {
      "buffer": 0,
      "byteOffset": 25968,
      "byteLength": 15456,
      "target": 34962,
      "byteStride": 12
    },
    {
      "buffer": 0,
      "byteOffset": 41424,
      "byteLength": 15456,
      "target": 34962,
      "byteStride": 12
    },
    {
      "buffer": 0,
      "byteOffset": 56880,
      "byteLength": 10304,
      "target": 34962,
      "byteStride": 8
    },
    {
      "buffer": 0,
      "byteOffset": 67184,
      "byteLength": 7656,
      "target": 34963
    },
    {
      "buffer": 0,
      "byteOffset": 74840,
      "byteLength": 5820,
      "target": 34962,
      "byteStride": 12
    },
    {
      "buffer": 0,
      "byteOffset": 80660,
      "byteLength": 5820,
      "target": 34962,
      "byteStride": 12
    },
    {
      "buffer": 0,
      "byteOffset": 86480,
      "byteLength": 3444,
      "target": 34963
    },
    {
      "buffer": 0,
      "byteOffset": 89924,
      "byteLength": 15672,
      "target": 34962,
      "byteStride": 12
    },
    {
      "buffer": 0,
      "byteOffset": 105596,
      "byteLength": 15672,
      "target": 34962,
      "byteStride": 12
    },
    {
      "buffer": 0,
      "byteOffset": 121268,
      "byteLength": 10448,
      "target": 34962,
      "byteStride": 8
    },
    {
      "buffer": 0,
      "byteOffset": 131716,
      "byteLength": 27408,
      "target": 34963
    }
  ],
  "buffers": [
    {
      "byteLength": 159124,
      "uri": "data:application/octet-stream;base64,"
    }
  ],
  "accessors": [
    {
      "bufferView": 0,
      "componentType": 5126,
      "count": 224,
      "max": [
        24.387537002563477,
        19.000383377075195,
        0.005000000353902578
      ],
      "min": [
        -24.38753890991211,
        -19.000383377075195,
        -0.005000000353902578
      ],
      "type": "VEC3"
    },
    {
      "bufferView": 1,
      "componentType": 5126,
      "count": 224,
      "max": [
        2.562813459713875e-12,
        9.306844357681587e-12,
        1
      ],
      "min": [
        0,
        0,
        0.9999999403953552
      ],
      "type": "VEC3"
    },
    {
      "bufferView": 2,
      "componentType": 5125,
      "count": 636,
      "max": [
        223
      ],
      "min": [
        0
      ],
      "type": "SCALAR"
    },
    {
      "bufferView": 3,
      "componentType": 5126,
      "count": 504,
      "max": [
        12.65160846710205,
        16.02837562561035,
        0.5
      ],
      "min": [
        -12.65160846710205,
        -16.02837562561035,
        -0.5
      ],
      "type": "VEC3"
    },
    {
      "bufferView": 4,
      "componentType": 5126,
      "count": 504,
      "max": [
        1.235477675720631e-8,
        0,
        1
      ],
      "min": [
        0,
        -1.1634405661098413e-9,
        0.9999999403953552
      ],
      "type": "VEC3"
    },
    {
      "bufferView": 5,
      "componentType": 5125,
      "count": 1488,
      "max": [
        503
      ],
      "min": [
        0
      ],
      "type": "SCALAR"
    },
    {
      "bufferView": 6,
      "componentType": 5126,
      "count": 1288,
      "max": [
        0.14234726130962372,
        5.754768371582031,
        0
      ],
      "min": [
        -100.31465148925781,
        -4.745232105255127,
        0
      ],
      "type": "VEC3"
    },
    {
      "bufferView": 7,
      "componentType": 5126,
      "count": 1288,
      "max": [
        0,
        0,
        1
      ],
      "min": [
        0,
        0,
        1
      ],
      "type": "VEC3"
    },
    {
      "bufferView": 8,
      "componentType": 5126,
      "count": 1288,
      "max": [
        1,
        1
      ],
      "min": [
        0,
        0
      ],
      "type": "VEC2"
    },
    {
      "bufferView": 9,
      "componentType": 5123,
      "count": 3828,
      "max": [
        1287
      ],
      "min": [
        0
      ],
      "type": "SCALAR"
    },
    {
      "bufferView": 10,
      "componentType": 5126,
      "count": 485,
      "max": [
        36.60869598388672,
        11.847928047180176,
        0.5
      ],
      "min": [
        -36.60869598388672,
        -11.847926139831543,
        -0.5
      ],
      "type": "VEC3"
    },
    {
      "bufferView": 11,
      "componentType": 5126,
      "count": 485,
      "max": [
        0,
        0,
        1
      ],
      "min": [
        -6.858440038115532e-9,
        -4.064260927805208e-9,
        0.9999999403953552
      ],
      "type": "VEC3"
    },
    {
      "bufferView": 12,
      "componentType": 5125,
      "count": 861,
      "max": [
        484
      ],
      "min": [
        0
      ],
      "type": "SCALAR"
    },
    {
      "bufferView": 13,
      "componentType": 5126,
      "count": 1306,
      "max": [
        168.5,
        106,
        4
      ],
      "min": [
        -168.5,
        -106,
        0
      ],
      "type": "VEC3"
    },
    {
      "bufferView": 14,
      "componentType": 5126,
      "count": 1306,
      "max": [
        1,
        1,
        1
      ],
      "min": [
        -1,
        -1,
        -1
      ],
      "type": "VEC3"
    },
    {
      "bufferView": 15,
      "componentType": 5126,
      "count": 1306,
      "max": [
        1,
        1
      ],
      "min": [
        0,
        0
      ],
      "type": "VEC2"
    },
    {
      "bufferView": 16,
      "componentType": 5125,
      "count": 6852,
      "max": [
        1305
      ],
      "min": [
        0
      ],
      "type": "SCALAR"
    }
  ],
  "meshes": [
    {
      "primitives": [
        {
          "mode": 4,
          "attributes": {
            "POSITION": 0,
            "NORMAL": 1
          },
          "extras": {
            "type": "SubdivGeometry",
            "parameters": {
              "width": 48.775075912475586,
              "height": 38.00076675415039,
              "depth": 0.010000000707805157
            }
          },
          "indices": 2
        }
      ]
    },
    {
      "primitives": [
        {
          "mode": 4,
          "attributes": {
            "POSITION": 3,
            "NORMAL": 4
          },
          "extras": {
            "type": "SubdivGeometry",
            "parameters": {
              "width": 25.3032169342041,
              "height": 32.0567512512207,
              "depth": 1
            }
          },
          "indices": 5
        }
      ]
    },
    {
      "primitives": [
        {
          "mode": 4,
          "attributes": {
            "POSITION": 6,
            "NORMAL": 7,
            "TEXCOORD_0": 8
          },
          "extras": {
            "parameters": {
              "type": "TextGeometry",
              "width": 200.62930693318967,
              "height": 18.45353639896544,
              "depth": 0,
              "horizontalAlign": 1,
              "verticalAlign": 1,
              "fontSize": 14,
              "lineHeight": 1.2,
              "letterSpacing": 0.1,
              "text": {
                "textValue": "JOHN MOORE"
              },
              "textTransform": 1,
              "font": "Manrope_500",
              "editable": false,
              "extrudeBevelSize": 0,
              "extrudeBevelSegments": 1
            },
            "type": "TextGeometry"
          },
          "indices": 9
        }
      ]
    },
    {
      "primitives": [
        {
          "mode": 4,
          "attributes": {
            "POSITION": 10,
            "NORMAL": 11
          },
          "extras": {
            "type": "SubdivGeometry",
            "parameters": {
              "width": 73.21739196777344,
              "height": 23.69585418701172,
              "depth": 1
            }
          },
          "indices": 12
        }
      ]
    },
    {
      "primitives": [
        {
          "mode": 4,
          "attributes": {
            "POSITION": 13,
            "NORMAL": 14,
            "TEXCOORD_0": 15
          },
          "extras": {
            "parameters": {
              "width": 337,
              "subdivisions": 12,
              "roundness": 12,
              "extrudeBevelSize": 0.2,
              "extrudeBevelSegments": 10,
              "windingRule": 0,
              "depth": 4,
              "cornerRadius": [
                24,
                24,
                24,
                24
              ],
              "cornerType": 1,
              "height": 212,
              "type": "VectorGeometry",
              "shape": {
                "isClosed": true,
                "points": [
                  {
                    "id": "a91023ba-b78d-41fb-a844-4a557f4af591",
                    "fi": 0,
                    "data": {
                      "position": [
                        -168.5,
                        106
                      ],
                      "controlNext": {
                        "position": [
                          -168.5,
                          106
                        ]
                      },
                      "controlPrevious": {
                        "position": [
                          -168.5,
                          106
                        ]
                      },
                      "areControlsDirectionsMirrored": true,
                      "roundness": 12
                    }
                  },
                  {
                    "id": "8874beac-77fe-463b-9379-887efe172eba",
                    "fi": 1,
                    "data": {
                      "position": [
                        168.5,
                        106
                      ],
                      "controlNext": {
                        "position": [
                          168.5,
                          106
                        ]
                      },
                      "controlPrevious": {
                        "position": [
                          168.5,
                          106
                        ]
                      },
                      "areControlsDirectionsMirrored": true,
                      "roundness": 12
                    }
                  },
                  {
                    "id": "49b19aed-2314-431c-9dfe-bafe9821e92e",
                    "fi": 2,
                    "data": {
                      "position": [
                        168.5,
                        -106
                      ],
                      "controlNext": {
                        "position": [
                          168.5,
                          -106
                        ]
                      },
                      "controlPrevious": {
                        "position": [
                          168.5,
                          -106
                        ]
                      },
                      "areControlsDirectionsMirrored": true,
                      "roundness": 12
                    }
                  },
                  {
                    "id": "943308db-d144-4b85-b23a-a627de715a4d",
                    "fi": 3,
                    "data": {
                      "position": [
                        -168.5,
                        -106
                      ],
                      "controlNext": {
                        "position": [
                          -168.5,
                          -106
                        ]
                      },
                      "controlPrevious": {
                        "position": [
                          -168.5,
                          -106
                        ]
                      },
                      "areControlsDirectionsMirrored": true,
                      "roundness": 12
                    }
                  }
                ],
                "roundness": 12,
                "shapeHoles": []
              }
            },
            "shape": {
              "points": [
                -168.5,
                106,
                -168.5,
                106,
                -168.5,
                106,
                12,
                168.5,
                106,
                168.5,
                106,
                168.5,
                106,
                12,
                168.5,
                -106,
                168.5,
                -106,
                168.5,
                -106,
                12,
                -168.5,
                -106,
                -168.5,
                -106,
                -168.5,
                -106,
                12
              ],
              "shapeHoles": [],
              "isClosed": true,
              "roundness": 12
            },
            "type": "VectorGeometry"
          },
          "indices": 16
        }
      ]
    }
  ],
  "extensionsUsed": [
    "KHR_lights_punctual"
  ]
}